<?xml version="1.0" encoding="UTF-8" standalone="no"?>
<!DOCTYPE svg PUBLIC "-//W3C//DTD SVG 1.1//EN" "http://www.w3.org/Graphics/SVG/1.1/DTD/svg11.dtd">
<svg width="100%" height="100%" viewBox="0 0 1200 300" version="1.1" xmlns="http://www.w3.org/2000/svg" xmlns:xlink="http://www.w3.org/1999/xlink" xml:space="preserve" xmlns:serif="http://www.serif.com/" style="fill-rule:evenodd;clip-rule:evenodd;stroke-linecap:round;stroke-linejoin:round;">
    <g transform="matrix(1.2212,0,0,1.30135,2.09551,1.52431)">
        <rect x="-1.716" y="-1.171" width="982.637" height="230.53" style="fill:rgb(227,224,255);"/>
    </g>
    <g transform="matrix(11.0555,0,0,11.0555,27.0116,38.8426)">
        <g id="big-icons" serif:id="big icons">
            <path d="M15.59,14.37C15.697,14.822 15.751,15.285 15.751,15.75C15.751,19.042 13.042,21.75 9.751,21.75C9.751,21.75 9.75,21.75 9.75,21.75L9.75,16.95M15.59,14.37C19.461,11.55 21.754,7.039 21.75,2.25C16.961,2.247 12.45,4.539 9.631,8.41M15.591,14.37C13.853,15.641 11.86,16.521 9.75,16.95M9.631,8.41C9.178,8.303 8.715,8.249 8.25,8.249C4.958,8.249 2.25,10.957 2.25,14.249C2.25,14.249 2.25,14.25 2.25,14.25L7.05,14.25M9.631,8.41C8.36,10.148 7.48,12.14 7.051,14.25M9.75,16.95C9.647,16.971 9.543,16.991 9.439,17.01C8.532,16.291 7.71,15.469 6.991,14.562C7.01,14.458 7.03,14.354 7.051,14.25M4.811,16.64C3.472,17.636 2.794,19.298 3.054,20.946C4.702,21.206 6.365,20.527 7.36,19.188M16.5,9C16.5,9.823 15.823,10.5 15,10.5C14.177,10.5 13.5,9.823 13.5,9C13.5,8.177 14.177,7.5 15,7.5C15.823,7.5 16.5,8.177 16.5,9Z" style="fill:none;fill-rule:nonzero;stroke:rgb(212,208,250);stroke-width:1.5px;"/>
        </g>
    </g>
</svg>
