<?xml version="1.0" encoding="UTF-8" standalone="no"?>
<!DOCTYPE svg PUBLIC "-//W3C//DTD SVG 1.1//EN" "http://www.w3.org/Graphics/SVG/1.1/DTD/svg11.dtd">
<svg width="100%" height="100%" viewBox="0 0 1200 300" version="1.1" xmlns="http://www.w3.org/2000/svg" xmlns:xlink="http://www.w3.org/1999/xlink" xml:space="preserve" xmlns:serif="http://www.serif.com/" style="fill-rule:evenodd;clip-rule:evenodd;stroke-linecap:round;stroke-linejoin:round;">
    <g id="Layer1">
        <g transform="matrix(1.2212,0,0,1.30135,2.09551,1.52431)">
            <rect x="-1.716" y="-1.171" width="982.637" height="230.53" style="fill:rgb(227,224,255);"/>
        </g>
        <g transform="matrix(3.99565,0,0,3.99565,1021.65,97.5938)">
            <path d="M9.594,3.94C9.684,3.398 10.154,3 10.704,3L13.297,3C13.847,3 14.317,3.398 14.407,3.94L14.62,5.221C14.683,5.595 14.933,5.907 15.265,6.091C15.339,6.131 15.412,6.174 15.485,6.218C15.809,6.414 16.205,6.475 16.56,6.342L17.777,5.886C18.29,5.693 18.873,5.902 19.147,6.376L20.443,8.623C20.717,9.097 20.606,9.706 20.183,10.054L19.18,10.881C18.887,11.121 18.742,11.494 18.749,11.873C18.751,11.958 18.751,12.043 18.749,12.128C18.742,12.506 18.887,12.878 19.179,13.118L20.184,13.946C20.608,14.296 20.718,14.9 20.444,15.376L19.146,17.623C18.872,18.097 18.29,18.306 17.777,18.114L16.56,17.658C16.205,17.525 15.81,17.586 15.484,17.782C15.412,17.826 15.338,17.869 15.264,17.91C14.933,18.093 14.683,18.405 14.62,18.779L14.407,20.059C14.317,20.602 13.847,21 13.297,21L10.703,21C10.153,21 9.683,20.602 9.593,20.06L9.38,18.779C9.318,18.405 9.068,18.093 8.736,17.909C8.662,17.868 8.589,17.826 8.516,17.782C8.191,17.586 7.796,17.525 7.44,17.658L6.223,18.114C5.71,18.306 5.128,18.098 4.854,17.624L3.557,15.377C3.283,14.903 3.394,14.294 3.817,13.946L4.821,13.119C5.113,12.879 5.258,12.506 5.251,12.127C5.249,12.042 5.249,11.957 5.251,11.872C5.258,11.494 5.113,11.122 4.821,10.882L3.817,10.054C3.395,9.706 3.284,9.098 3.557,8.624L4.854,6.377C5.128,5.902 5.711,5.693 6.224,5.886L7.44,6.342C7.796,6.475 8.191,6.414 8.516,6.218C8.588,6.174 8.662,6.131 8.736,6.09C9.068,5.907 9.318,5.595 9.38,5.221L9.594,3.94Z" style="fill:none;fill-rule:nonzero;stroke:rgb(212,208,250);stroke-width:1.5px;"/>
        </g>
        <g transform="matrix(3.99565,0,0,3.99565,1021.65,97.5938)">
            <path d="M15,12C15,13.646 13.646,15 12,15C10.354,15 9,13.646 9,12C9,10.354 10.354,9 12,9C13.646,9 15,10.354 15,12Z" style="fill:none;fill-rule:nonzero;stroke:rgb(212,208,250);stroke-width:1.5px;"/>
        </g>
        <g transform="matrix(3.68736,0,0,3.68736,893.756,101.284)">
            <path d="M11.42,15.17L17.25,21C17.744,21.479 18.406,21.747 19.095,21.747C20.549,21.747 21.747,20.549 21.747,19.095C21.747,18.406 21.479,17.744 21,17.25L15.123,11.373M11.42,15.17L13.916,12.14C14.233,11.756 14.656,11.514 15.124,11.374M11.42,15.17L6.765,20.823C6.281,21.413 5.558,21.755 4.795,21.755C3.397,21.755 2.247,20.605 2.247,19.207C2.247,18.444 2.589,17.721 3.179,17.237L10.016,11.607M15.124,11.374C15.674,11.21 16.287,11.186 16.867,11.234C16.995,11.245 17.123,11.25 17.252,11.25C19.721,11.25 21.752,9.219 21.752,6.75C21.752,6.112 21.616,5.48 21.353,4.898L18.077,8.175C16.961,7.917 16.085,7.041 15.827,5.925L19.103,2.649C18.521,2.386 17.889,2.25 17.251,2.25C14.782,2.25 12.751,4.281 12.751,6.75C12.751,6.879 12.756,7.007 12.767,7.135C12.858,8.211 12.696,9.399 11.863,10.085L11.761,10.17M10.016,11.607L5.909,7.5L4.5,7.5L2.25,3.75L3.75,2.25L7.5,4.5L7.5,5.909L11.76,10.169M10.015,11.606L11.76,10.169M18.375,18.375L15.75,15.75M4.867,19.125L4.875,19.125L4.875,19.133L4.867,19.133L4.867,19.125Z" style="fill:none;fill-rule:nonzero;stroke:rgb(212,208,250);stroke-width:1.5px;"/>
        </g>
        <g transform="matrix(4.35889,0,0,4.35889,746.023,93.2349)">
            <path d="M6.75,7.5L9.75,9.75L6.75,12M11.25,12L14.25,12M5.25,20.25L18.75,20.25C19.984,20.25 21,19.234 21,18L21,6C21,4.766 19.984,3.75 18.75,3.75L5.25,3.75C4.016,3.75 3,4.766 3,6L3,18C3,19.234 4.016,20.25 5.25,20.25Z" style="fill:none;fill-rule:nonzero;stroke:rgb(212,208,250);stroke-width:1.5px;"/>
        </g>
        <g transform="matrix(4.35889,0,0,4.35889,600.319,93.2349)">
            <path d="M17.25,6.75L22.5,12L17.25,17.25M6.75,17.25L1.5,12L6.75,6.75M14.25,3.75L9.75,20.25" style="fill:none;fill-rule:nonzero;stroke:rgb(212,208,250);stroke-width:1.5px;"/>
        </g>
    </g>
</svg>
