<?xml version="1.0" encoding="UTF-8" standalone="no"?>
<!DOCTYPE svg PUBLIC "-//W3C//DTD SVG 1.1//EN" "http://www.w3.org/Graphics/SVG/1.1/DTD/svg11.dtd">
<svg width="100%" height="100%" viewBox="0 0 1200 300" version="1.1" xmlns="http://www.w3.org/2000/svg" xmlns:xlink="http://www.w3.org/1999/xlink" xml:space="preserve" xmlns:serif="http://www.serif.com/" style="fill-rule:evenodd;clip-rule:evenodd;stroke-linecap:round;stroke-linejoin:round;">
    <g transform="matrix(1.2212,0,0,1.30135,2.09551,1.52431)">
        <rect x="-1.716" y="-1.171" width="982.637" height="230.53" style="fill:rgb(227,224,255);"/>
    </g>
    <g id="browser-and-server" serif:id="browser and server">
        <g transform="matrix(13.2421,0,0,13.2421,24.5505,56.4776)">
            <path d="M2.036,12.322C1.967,12.115 1.967,11.89 2.036,11.683C3.423,7.51 7.36,4.5 12,4.5C16.638,4.5 20.573,7.507 21.963,11.678C22.033,11.885 22.033,12.109 21.963,12.317C20.577,16.49 16.64,19.5 12,19.5C7.362,19.5 3.427,16.493 2.037,12.322L2.036,12.322Z" style="fill:none;fill-rule:nonzero;stroke:rgb(212,208,250);stroke-width:1.5px;"/>
        </g>
        <g transform="matrix(13.2421,0,0,13.2421,24.5505,56.4776)">
            <path d="M15,12C15,13.646 13.646,15 12,15C10.354,15 9,13.646 9,12C9,10.354 10.354,9 12,9C13.646,9 15,10.354 15,12Z" style="fill:none;fill-rule:nonzero;stroke:rgb(212,208,250);stroke-width:1.5px;"/>
        </g>
    </g>
</svg>
