<?xml version="1.0" encoding="UTF-8" standalone="no"?>
<!DOCTYPE svg PUBLIC "-//W3C//DTD SVG 1.1//EN" "http://www.w3.org/Graphics/SVG/1.1/DTD/svg11.dtd">
<svg width="100%" height="100%" viewBox="0 0 1200 300" version="1.1" xmlns="http://www.w3.org/2000/svg" xmlns:xlink="http://www.w3.org/1999/xlink" xml:space="preserve" xmlns:serif="http://www.serif.com/" style="fill-rule:evenodd;clip-rule:evenodd;stroke-linecap:round;stroke-linejoin:round;">
    <g transform="matrix(1.2212,0,0,1.30135,2.09551,1.52431)">
        <rect x="-1.716" y="-1.171" width="982.637" height="230.53" style="fill:rgb(227,224,255);"/>
    </g>
    <g transform="matrix(13.6028,0,0,13.6028,20.2197,63.1977)">
        <g id="big-icons" serif:id="big icons">
            <path d="M6.429,9.75L2.25,12L6.429,14.25M6.429,9.75L12,12.75L17.571,9.75M6.429,9.75L2.25,7.5L12,2.25L21.75,7.5L17.571,9.75M17.571,9.75L21.75,12L17.571,14.25M17.571,14.25L21.75,16.5L12,21.75L2.25,16.5L6.429,14.25M17.571,14.25L12,17.25L6.429,14.25" style="fill:none;fill-rule:nonzero;stroke:rgb(212,208,250);stroke-width:1.5px;"/>
        </g>
    </g>
</svg>
