<?xml version="1.0" encoding="UTF-8" standalone="no"?>
<!DOCTYPE svg PUBLIC "-//W3C//DTD SVG 1.1//EN" "http://www.w3.org/Graphics/SVG/1.1/DTD/svg11.dtd">
<svg width="100%" height="100%" viewBox="0 0 1200 300" version="1.1" xmlns="http://www.w3.org/2000/svg" xmlns:xlink="http://www.w3.org/1999/xlink" xml:space="preserve" xmlns:serif="http://www.serif.com/" style="fill-rule:evenodd;clip-rule:evenodd;stroke-linecap:round;stroke-linejoin:round;">
    <g transform="matrix(1.2212,0,0,1.30135,2.09551,1.52431)">
        <rect x="-1.716" y="-1.171" width="982.637" height="230.53" style="fill:rgb(227,224,255);"/>
    </g>
    <g transform="matrix(13.6028,0,0,13.6028,20.2197,42.7935)">
        <g id="browser-and-server" serif:id="browser and server">
            <path d="M5.25,14.25L18.75,14.25M5.25,14.25C3.604,14.25 2.25,12.896 2.25,11.25M5.25,14.25C3.604,14.25 2.25,15.604 2.25,17.25C2.25,18.896 3.604,20.25 5.25,20.25L18.75,20.25C20.396,20.25 21.75,18.896 21.75,17.25C21.75,15.604 20.396,14.25 18.75,14.25M2.25,11.25C2.25,9.604 3.604,8.25 5.25,8.25L18.75,8.25C20.396,8.25 21.75,9.604 21.75,11.25M2.25,11.25C2.25,10.277 2.566,9.329 3.15,8.55L5.737,5.1C6.374,4.251 7.375,3.75 8.437,3.75L15.563,3.75C16.625,3.75 17.625,4.25 18.263,5.1L20.85,8.55C21.434,9.329 21.75,10.277 21.75,11.25M21.75,11.25C21.75,12.896 20.396,14.25 18.75,14.25M18.75,17.25L18.758,17.25L18.75,17.25ZM18.758,11.258L18.758,11.25L18.758,11.258ZM15.75,17.25L15.758,17.25L15.75,17.25ZM15.75,11.25L15.758,11.25L15.75,11.25Z" style="fill:none;fill-rule:nonzero;stroke:rgb(212,208,250);stroke-width:1.5px;"/>
        </g>
    </g>
</svg>
