<?xml version="1.0" encoding="UTF-8" standalone="no"?>
<!DOCTYPE svg PUBLIC "-//W3C//DTD SVG 1.1//EN" "http://www.w3.org/Graphics/SVG/1.1/DTD/svg11.dtd">
<svg width="100%" height="100%" viewBox="0 0 892 676" version="1.1" xmlns="http://www.w3.org/2000/svg" xmlns:xlink="http://www.w3.org/1999/xlink" xml:space="preserve" xmlns:serif="http://www.serif.com/" style="fill-rule:evenodd;clip-rule:evenodd;stroke-linejoin:round;stroke-miterlimit:2;">
    <g transform="matrix(1,0,0,1,-94.0288,-202.499)">
        <g transform="matrix(1,0,0,1,-1.80324,-3.74674)">
            <g transform="matrix(1,0,0,1,-1.11621,-27.5901)">
                <ellipse cx="539.684" cy="467.519" rx="58.76" ry="45.188" style="fill:rgb(67,56,202);"/>
            </g>
            <g transform="matrix(1.18944,0,0,1,-103.4,-14.4999)">
                <rect x="520.829" y="489.986" width="39.586" height="68.132" style="fill:rgb(67,56,202);"/>
            </g>
            <g transform="matrix(0.789051,1.08011,-1.3672,0.998777,779.793,-552.31)">
                <rect x="520.829" y="489.986" width="39.586" height="68.132" style="fill:rgb(67,56,202);"/>
            </g>
            <g transform="matrix(-0.789051,1.08011,1.3672,0.998777,298.675,-552.31)">
                <rect x="520.829" y="489.986" width="39.586" height="68.132" style="fill:rgb(67,56,202);"/>
            </g>
            <g transform="matrix(1,0,0,1,-0.361025,-14.0963)">
                <path d="M369.539,462.422L339.963,435.491C339.963,435.491 367.51,405.627 404.706,403.722C451.973,401.3 485.285,424.548 485.285,424.548L462.65,457.527C462.65,457.527 439.459,441.994 406.752,443.669C385.259,444.771 369.539,462.422 369.539,462.422Z" style="fill:rgb(67,56,202);"/>
            </g>
            <g transform="matrix(-1,0,0,1,1076.08,-14.0306)">
                <path d="M339.963,435.491L369.539,462.422C369.539,462.422 385.259,444.771 406.752,443.669C439.459,441.994 462.65,457.527 462.65,457.527L485.285,424.548C485.285,424.548 451.973,401.3 404.706,403.722C367.51,405.627 339.963,435.491 339.963,435.491Z" style="fill:rgb(67,56,202);"/>
            </g>
            <g transform="matrix(1,0,0,1.03849,0,-17.2854)">
                <path d="M325.847,303.823C383.954,256.89 459.088,228.578 541.095,228.578C624.082,228.578 700.03,257.57 758.418,305.512L987.774,217.188L863.813,466.335C870.856,492.071 874.606,519.072 874.606,546.903C874.606,722.592 725.165,865.228 541.095,865.228C357.025,865.228 207.584,722.592 207.584,546.903C207.584,517.965 211.638,489.923 219.234,463.267L95.832,215.245L325.847,303.823ZM736.363,377.78C686.87,327.268 615.93,295.601 537.183,295.601C461.222,295.601 392.526,325.067 343.337,372.49L214.014,320.471L284.976,457.412C273.008,486.133 266.437,517.389 266.437,550.077C266.437,690.526 387.754,804.552 537.183,804.552C686.613,804.552 807.93,690.526 807.93,550.077C807.93,521.202 802.803,493.445 793.357,467.565L867.143,325.174L736.363,377.78Z" style="fill:rgb(67,56,202);"/>
            </g>
        </g>
    </g>
</svg>
