<?xml version="1.0" encoding="UTF-8" standalone="no"?>
<!DOCTYPE svg PUBLIC "-//W3C//DTD SVG 1.1//EN" "http://www.w3.org/Graphics/SVG/1.1/DTD/svg11.dtd">
<svg width="100%" height="100%" viewBox="0 0 1080 1080" version="1.1" xmlns="http://www.w3.org/2000/svg" xmlns:xlink="http://www.w3.org/1999/xlink" xml:space="preserve" xmlns:serif="http://www.serif.com/" style="fill-rule:evenodd;clip-rule:evenodd;stroke-linejoin:round;stroke-miterlimit:2;">
    <g transform="matrix(2.48867,0,0,2.48867,-959.455,-809.12)">
        <g transform="matrix(0.0980121,0,0,0.0980121,402.175,488.81)">
            <g transform="matrix(1,0,0,1,-1.11621,-27.5901)">
                <ellipse cx="539.684" cy="467.519" rx="58.76" ry="45.188" style="fill:rgb(67,56,202);"/>
            </g>
            <g transform="matrix(1.18944,0,0,1,-103.4,-14.4999)">
                <rect x="520.829" y="489.986" width="39.586" height="68.132" style="fill:rgb(67,56,202);"/>
            </g>
            <g transform="matrix(0.789051,1.08011,-1.3672,0.998777,779.793,-552.31)">
                <rect x="520.829" y="489.986" width="39.586" height="68.132" style="fill:rgb(67,56,202);"/>
            </g>
            <g transform="matrix(-0.789051,1.08011,1.3672,0.998777,298.675,-552.31)">
                <rect x="520.829" y="489.986" width="39.586" height="68.132" style="fill:rgb(67,56,202);"/>
            </g>
            <g transform="matrix(1,0,0,1,-0.361025,-14.0963)">
                <path d="M369.539,462.422L339.963,435.491C339.963,435.491 367.51,405.627 404.706,403.722C451.973,401.3 485.285,424.548 485.285,424.548L462.65,457.527C462.65,457.527 439.459,441.994 406.752,443.669C385.259,444.771 369.539,462.422 369.539,462.422Z" style="fill:rgb(67,56,202);"/>
            </g>
            <g transform="matrix(-1,0,0,1,1076.08,-14.0306)">
                <path d="M339.963,435.491L369.539,462.422C369.539,462.422 385.259,444.771 406.752,443.669C439.459,441.994 462.65,457.527 462.65,457.527L485.285,424.548C485.285,424.548 451.973,401.3 404.706,403.722C367.51,405.627 339.963,435.491 339.963,435.491Z" style="fill:rgb(67,56,202);"/>
            </g>
            <g transform="matrix(1,0,0,1.03849,0,-17.2854)">
                <path d="M325.847,303.823C383.954,256.89 459.088,228.578 541.095,228.578C624.082,228.578 700.03,257.57 758.418,305.512L987.774,217.188L863.813,466.335C870.856,492.071 874.606,519.072 874.606,546.903C874.606,722.592 725.165,865.228 541.095,865.228C357.025,865.228 207.584,722.592 207.584,546.903C207.584,517.965 211.638,489.923 219.234,463.267L95.832,215.245L325.847,303.823ZM736.363,377.78C686.87,327.268 615.93,295.601 537.183,295.601C461.222,295.601 392.526,325.067 343.337,372.49L214.014,320.471L284.976,457.412C273.008,486.133 266.437,517.389 266.437,550.077C266.437,690.526 387.754,804.552 537.183,804.552C686.613,804.552 807.93,690.526 807.93,550.077C807.93,521.202 802.803,493.445 793.357,467.565L867.143,325.174L736.363,377.78Z" style="fill:rgb(67,56,202);"/>
            </g>
        </g>
        <g transform="matrix(1.62111,0,0,1.62111,-243.721,-226.813)">
            <path d="M463.146,483.035L458.148,465.58L462.178,465.58L465.069,477.71L465.219,477.71L468.403,465.58L471.853,465.58L475.037,477.73L475.187,477.73L478.078,465.58L482.107,465.58L477.11,483.035L473.517,483.035L470.196,471.621L470.06,471.621L466.739,483.035L463.146,483.035Z" style="fill:rgb(67,56,202);fill-rule:nonzero;"/>
            <path d="M484.426,483.28C483.593,483.28 482.849,483.135 482.195,482.843C481.541,482.552 481.026,482.117 480.648,481.54C480.271,480.963 480.082,480.243 480.082,479.38C480.082,478.651 480.215,478.04 480.48,477.547C480.744,477.055 481.107,476.658 481.567,476.357C482.027,476.055 482.552,475.827 483.141,475.671C483.73,475.516 484.349,475.406 484.998,475.344C485.756,475.269 486.369,475.196 486.835,475.125C487.301,475.054 487.64,474.947 487.852,474.805C488.063,474.662 488.169,474.451 488.169,474.171L488.169,474.124C488.169,473.583 487.999,473.164 487.659,472.869C487.319,472.574 486.842,472.426 486.226,472.426C485.572,472.426 485.052,472.569 484.665,472.854C484.278,473.14 484.023,473.5 483.901,473.933L480.539,473.66C480.71,472.864 481.045,472.175 481.544,471.593C482.043,471.011 482.69,470.562 483.483,470.247C484.276,469.931 485.195,469.773 486.239,469.773C486.97,469.773 487.668,469.859 488.334,470.03C489,470.201 489.593,470.465 490.112,470.821C490.631,471.177 491.042,471.635 491.343,472.195C491.645,472.754 491.796,473.425 491.796,474.205L491.796,483.035L488.353,483.035L488.353,481.221L488.251,481.221C488.039,481.628 487.758,481.987 487.408,482.297C487.057,482.607 486.634,482.848 486.138,483.021C485.642,483.194 485.071,483.28 484.426,483.28ZM485.469,480.778C486.002,480.778 486.473,480.671 486.881,480.458C487.29,480.244 487.61,479.955 487.842,479.59C488.073,479.225 488.189,478.814 488.189,478.358L488.189,476.967C488.08,477.038 487.927,477.104 487.728,477.164C487.53,477.225 487.309,477.279 487.067,477.326C486.824,477.374 486.581,477.417 486.337,477.454C486.094,477.492 485.872,477.525 485.673,477.553C485.246,477.614 484.873,477.714 484.554,477.85C484.236,477.987 483.988,478.171 483.811,478.401C483.634,478.631 483.546,478.917 483.546,479.258C483.546,479.755 483.727,480.133 484.088,480.391C484.449,480.649 484.91,480.778 485.469,480.778Z" style="fill:rgb(67,56,202);fill-rule:nonzero;"/>
            <path d="M501.192,469.944L501.192,472.671L493.303,472.671L493.303,469.944L501.192,469.944ZM495.096,466.808L498.723,466.808L498.723,479.009C498.723,479.345 498.776,479.606 498.88,479.792C498.985,479.978 499.129,480.107 499.313,480.181C499.497,480.254 499.71,480.291 499.951,480.291C500.124,480.291 500.297,480.275 500.468,480.245C500.639,480.214 500.769,480.188 500.857,480.168L501.43,482.875C501.249,482.933 500.993,483 500.662,483.076C500.331,483.152 499.93,483.199 499.46,483.216C498.585,483.25 497.819,483.133 497.162,482.867C496.505,482.601 495.995,482.185 495.631,481.62C495.268,481.055 495.089,480.346 495.096,479.493L495.096,466.808Z" style="fill:rgb(67,56,202);fill-rule:nonzero;"/>
            <path d="M508.732,483.287C507.389,483.287 506.237,483.002 505.276,482.431C504.314,481.86 503.576,481.066 503.061,480.051C502.547,479.036 502.289,477.864 502.289,476.537C502.289,475.201 502.549,474.024 503.07,473.008C503.59,471.991 504.331,471.198 505.291,470.628C506.251,470.058 507.394,469.773 508.719,469.773C509.857,469.773 510.857,469.981 511.716,470.395C512.576,470.809 513.255,471.392 513.754,472.144C514.253,472.895 514.527,473.776 514.576,474.785L511.153,474.785C511.054,474.134 510.8,473.607 510.39,473.206C509.98,472.804 509.442,472.603 508.773,472.603C508.214,472.603 507.725,472.755 507.306,473.059C506.886,473.363 506.56,473.804 506.327,474.383C506.094,474.962 505.978,475.664 505.978,476.489C505.978,477.323 506.093,478.033 506.324,478.618C506.555,479.202 506.88,479.648 507.299,479.956C507.718,480.263 508.21,480.417 508.773,480.417C509.19,480.417 509.564,480.332 509.895,480.162C510.226,479.992 510.5,479.744 510.719,479.419C510.938,479.093 511.082,478.699 511.153,478.235L514.576,478.235C514.52,479.236 514.249,480.116 513.764,480.876C513.279,481.636 512.61,482.228 511.757,482.651C510.904,483.075 509.896,483.287 508.732,483.287Z" style="fill:rgb(67,56,202);fill-rule:nonzero;"/>
            <path d="M519.846,475.467L519.846,483.035L516.219,483.035L516.219,465.58L519.744,465.58L519.744,472.255L519.894,472.255C520.194,471.484 520.673,470.877 521.332,470.436C521.991,469.994 522.816,469.773 523.807,469.773C524.72,469.773 525.516,469.971 526.195,470.365C526.874,470.759 527.401,471.324 527.776,472.059C528.152,472.794 528.338,473.673 528.335,474.696L528.335,483.035L524.707,483.035L524.707,475.344C524.711,474.539 524.507,473.912 524.096,473.462C523.686,473.012 523.11,472.787 522.369,472.787C521.877,472.787 521.441,472.893 521.06,473.105C520.68,473.317 520.384,473.623 520.171,474.022C519.958,474.421 519.849,474.903 519.846,475.467Z" style="fill:rgb(67,56,202);fill-rule:nonzero;"/>
            <path d="M545.864,471.689L542.135,471.689C542.064,471.208 541.924,470.777 541.713,470.399C541.502,470.021 541.233,469.698 540.905,469.43C540.577,469.162 540.199,468.958 539.771,468.818C539.342,468.678 538.876,468.607 538.371,468.607C537.471,468.607 536.686,468.83 536.015,469.276C535.344,469.721 534.823,470.368 534.453,471.217C534.083,472.066 533.898,473.096 533.898,474.308C533.898,475.553 534.085,476.599 534.458,477.447C534.831,478.294 535.353,478.932 536.022,479.362C536.691,479.793 537.468,480.008 538.351,480.008C538.845,480.008 539.303,479.943 539.724,479.812C540.146,479.682 540.522,479.491 540.851,479.239C541.181,478.987 541.456,478.678 541.677,478.314C541.898,477.95 542.051,477.535 542.135,477.069L545.864,477.089C545.766,477.889 545.526,478.66 545.143,479.4C544.76,480.14 544.247,480.802 543.603,481.386C542.959,481.969 542.193,482.43 541.303,482.767C540.413,483.105 539.409,483.273 538.289,483.273C536.732,483.273 535.341,482.922 534.116,482.218C532.89,481.515 531.924,480.495 531.216,479.157C530.509,477.819 530.155,476.203 530.155,474.308C530.155,472.405 530.513,470.786 531.229,469.45C531.945,468.115 532.916,467.096 534.144,466.394C535.371,465.693 536.753,465.342 538.289,465.342C539.303,465.342 540.243,465.483 541.109,465.766C541.974,466.049 542.742,466.462 543.411,467.004C544.081,467.547 544.627,468.211 545.051,468.996C545.475,469.781 545.746,470.679 545.864,471.689Z" style="fill:rgb(67,56,202);fill-rule:nonzero;"/>
            <path d="M551.585,483.28C550.752,483.28 550.008,483.135 549.354,482.843C548.7,482.552 548.185,482.117 547.807,481.54C547.43,480.963 547.242,480.243 547.242,479.38C547.242,478.651 547.374,478.04 547.639,477.547C547.904,477.055 548.266,476.658 548.726,476.357C549.186,476.055 549.711,475.827 550.3,475.671C550.89,475.516 551.509,475.406 552.157,475.344C552.915,475.269 553.528,475.196 553.994,475.125C554.461,475.054 554.799,474.947 555.011,474.805C555.222,474.662 555.328,474.451 555.328,474.171L555.328,474.124C555.328,473.583 555.158,473.164 554.818,472.869C554.479,472.574 554.001,472.426 553.385,472.426C552.731,472.426 552.211,472.569 551.824,472.854C551.437,473.14 551.182,473.5 551.06,473.933L547.698,473.66C547.869,472.864 548.204,472.175 548.703,471.593C549.203,471.011 549.849,470.562 550.642,470.247C551.435,469.931 552.354,469.773 553.398,469.773C554.129,469.773 554.827,469.859 555.493,470.03C556.159,470.201 556.752,470.465 557.271,470.821C557.79,471.177 558.201,471.635 558.503,472.195C558.804,472.754 558.955,473.425 558.955,474.205L558.955,483.035L555.512,483.035L555.512,481.221L555.41,481.221C555.198,481.628 554.917,481.987 554.567,482.297C554.216,482.607 553.793,482.848 553.297,483.021C552.801,483.194 552.23,483.28 551.585,483.28ZM552.628,480.778C553.161,480.778 553.632,480.671 554.04,480.458C554.449,480.244 554.769,479.955 555.001,479.59C555.232,479.225 555.348,478.814 555.348,478.358L555.348,476.967C555.239,477.038 555.086,477.104 554.887,477.164C554.689,477.225 554.469,477.279 554.226,477.326C553.983,477.374 553.74,477.417 553.496,477.454C553.253,477.492 553.031,477.525 552.832,477.553C552.405,477.614 552.032,477.714 551.713,477.85C551.395,477.987 551.147,478.171 550.97,478.401C550.793,478.631 550.705,478.917 550.705,479.258C550.705,479.755 550.886,480.133 551.247,480.391C551.609,480.649 552.069,480.778 552.628,480.778Z" style="fill:rgb(67,56,202);fill-rule:nonzero;"/>
            <path d="M568.351,469.944L568.351,472.671L560.462,472.671L560.462,469.944L568.351,469.944ZM562.255,466.808L565.882,466.808L565.882,479.009C565.882,479.345 565.935,479.606 566.039,479.792C566.144,479.978 566.288,480.107 566.472,480.181C566.656,480.254 566.869,480.291 567.11,480.291C567.284,480.291 567.456,480.275 567.627,480.245C567.798,480.214 567.928,480.188 568.017,480.168L568.589,482.875C568.409,482.933 568.153,483 567.821,483.076C567.49,483.152 567.089,483.199 566.619,483.216C565.744,483.25 564.978,483.133 564.321,482.867C563.664,482.601 563.154,482.185 562.79,481.62C562.427,481.055 562.248,480.346 562.255,479.493L562.255,466.808Z" style="fill:rgb(67,56,202);fill-rule:nonzero;"/>
            <path d="M583.119,483.035L576.935,483.035L576.935,465.58L583.173,465.58C584.928,465.58 586.439,465.928 587.707,466.624C588.974,467.32 589.95,468.319 590.635,469.621C591.32,470.923 591.662,472.48 591.662,474.294C591.662,476.112 591.319,477.674 590.634,478.981C589.949,480.287 588.968,481.289 587.692,481.987C586.416,482.686 584.892,483.035 583.119,483.035ZM580.623,479.871L582.962,479.871C584.057,479.871 584.978,479.676 585.724,479.287C586.47,478.897 587.033,478.292 587.412,477.471C587.791,476.651 587.98,475.592 587.98,474.294C587.98,473.001 587.79,471.946 587.41,471.129C587.03,470.312 586.469,469.71 585.726,469.323C584.983,468.937 584.067,468.744 582.976,468.744L580.623,468.744L580.623,479.871Z" style="fill:rgb(67,56,202);fill-rule:nonzero;"/>
            <path d="M600.028,483.287C598.703,483.287 597.559,483.005 596.597,482.441C595.634,481.877 594.892,481.088 594.369,480.075C593.846,479.062 593.585,477.883 593.585,476.537C593.585,475.187 593.846,474.004 594.369,472.989C594.892,471.974 595.634,471.184 596.597,470.62C597.559,470.056 598.703,469.773 600.028,469.773C601.353,469.773 602.497,470.056 603.459,470.62C604.422,471.184 605.164,471.974 605.687,472.989C606.21,474.004 606.471,475.187 606.471,476.537C606.471,477.883 606.21,479.062 605.687,480.075C605.164,481.088 604.422,481.877 603.459,482.441C602.497,483.005 601.353,483.287 600.028,483.287ZM600.048,480.478C600.646,480.478 601.148,480.306 601.553,479.962C601.959,479.617 602.265,479.147 602.472,478.55C602.679,477.954 602.782,477.276 602.782,476.517C602.782,475.754 602.679,475.074 602.472,474.477C602.265,473.88 601.959,473.408 601.553,473.062C601.148,472.715 600.646,472.542 600.048,472.542C599.437,472.542 598.925,472.715 598.512,473.062C598.1,473.408 597.79,473.88 597.584,474.477C597.377,475.074 597.273,475.754 597.273,476.517C597.273,477.276 597.377,477.954 597.584,478.55C597.79,479.147 598.1,479.617 598.512,479.962C598.925,480.306 599.437,480.478 600.048,480.478Z" style="fill:rgb(67,56,202);fill-rule:nonzero;"/>
            <path d="M614.346,483.287C613.003,483.287 611.851,483.002 610.889,482.431C609.928,481.86 609.19,481.066 608.675,480.051C608.16,479.036 607.903,477.864 607.903,476.537C607.903,475.201 608.163,474.024 608.684,473.008C609.204,471.991 609.944,471.198 610.905,470.628C611.865,470.058 613.007,469.773 614.332,469.773C615.471,469.773 616.47,469.981 617.33,470.395C618.189,470.809 618.869,471.392 619.368,472.144C619.867,472.895 620.14,473.776 620.189,474.785L616.767,474.785C616.668,474.134 616.413,473.607 616.004,473.206C615.594,472.804 615.055,472.603 614.387,472.603C613.828,472.603 613.339,472.755 612.919,473.059C612.5,473.363 612.174,473.804 611.941,474.383C611.708,474.962 611.591,475.664 611.591,476.489C611.591,477.323 611.707,478.033 611.938,478.618C612.168,479.202 612.493,479.648 612.913,479.956C613.332,480.263 613.823,480.417 614.387,480.417C614.804,480.417 615.178,480.332 615.509,480.162C615.839,479.992 616.114,479.744 616.333,479.419C616.552,479.093 616.696,478.699 616.767,478.235L620.189,478.235C620.134,479.236 619.863,480.116 619.378,480.876C618.893,481.636 618.224,482.228 617.371,482.651C616.518,483.075 615.51,483.287 614.346,483.287Z" style="fill:rgb(67,56,202);fill-rule:nonzero;"/>
            <path d="M632.721,473.673L629.401,473.878C629.342,473.597 629.219,473.342 629.032,473.111C628.846,472.88 628.6,472.696 628.295,472.558C627.99,472.42 627.627,472.351 627.205,472.351C626.643,472.351 626.168,472.468 625.782,472.704C625.395,472.939 625.204,473.251 625.207,473.639C625.204,473.955 625.327,474.221 625.576,474.435C625.826,474.65 626.255,474.823 626.864,474.955L629.237,475.433C630.51,475.693 631.458,476.112 632.081,476.691C632.704,477.27 633.018,478.033 633.021,478.978C633.018,479.837 632.766,480.59 632.265,481.237C631.764,481.885 631.077,482.388 630.203,482.748C629.328,483.107 628.324,483.287 627.192,483.287C625.457,483.287 624.077,482.926 623.05,482.203C622.024,481.48 621.425,480.494 621.253,479.244L624.819,479.053C624.929,479.584 625.191,479.987 625.604,480.262C626.017,480.538 626.548,480.676 627.198,480.676C627.832,480.676 628.345,480.551 628.735,480.303C629.125,480.054 629.322,479.735 629.326,479.346C629.322,479.014 629.184,478.742 628.912,478.53C628.64,478.317 628.219,478.153 627.648,478.037L625.385,477.587C624.104,477.334 623.152,476.891 622.53,476.259C621.907,475.627 621.597,474.822 621.601,473.844C621.597,473.003 621.825,472.279 622.283,471.671C622.742,471.064 623.388,470.596 624.221,470.267C625.055,469.938 626.029,469.773 627.144,469.773C628.797,469.773 630.1,470.122 631.053,470.82C632.006,471.518 632.562,472.469 632.721,473.673Z" style="fill:rgb(67,56,202);fill-rule:nonzero;"/>
        </g>
    </g>
</svg>
